<?xml version="1.0" encoding="UTF-8"?>
<svg width="100px" height="100px" viewBox="0 0 100 100" version="1.1" xmlns="http://www.w3.org/2000/svg" xmlns:xlink="http://www.w3.org/1999/xlink">
    <!-- Generator: Sketch 55 (78076) - https://sketchapp.com -->
    <title>credit-card (2)</title>
    <desc>Created with Sketch.</desc>
    <g id="Page-1" stroke="none" stroke-width="1" fill="none" fill-rule="evenodd">
        <g id="credit-card-(2)" fill="#000000" fill-rule="nonzero">
            <path d="M97.3455078,34.3175781 L65.6802734,2.65273437 C63.9708984,0.943554687 61.6914062,0.0021484375 59.2613281,0.0021484375 C56.8314453,0.0021484375 54.5517578,0.943164062 52.8423828,2.65234375 L2.65058594,52.8443359 C0.94140625,54.5537109 0,56.8330078 0,59.2630859 C0,61.6931641 0.94140625,63.9728516 2.65058594,65.6818359 L6.55527344,69.5865234 C6.55566406,69.5867187 6.55585937,69.5871094 6.55625,69.5875 C6.55664062,69.5878906 6.55703125,69.5882812 6.55742188,69.5886719 L32.7996094,95.8308594 L29.1660156,95.8308594 C28.015625,95.8308594 27.0828125,96.7634766 27.0828125,97.9140625 C27.0828125,99.0644531 28.015625,99.9972656 29.1660156,99.9972656 L40.7263672,99.9972656 C40.7291016,99.9972656 40.7316406,99.9974609 40.734375,99.9974609 C40.7371094,99.9974609 40.7396484,99.9972656 40.7423828,99.9972656 L70.8308594,99.9976562 C71.98125,99.9976562 72.9140625,99.0648437 72.9140625,97.9144531 C72.9140625,96.7638672 71.98125,95.83125 70.8308594,95.83125 L48.6699219,95.8308594 L97.3457031,47.1550781 C100.884766,43.615625 100.884766,37.8566406 97.3455078,34.3175781 Z M94.3994141,44.2089844 L44.2072266,94.4011719 C43.2867188,95.3214844 42.05625,95.8289062 40.7419922,95.8308594 L40.7261719,95.8308594 C39.4123047,95.8287109 38.1822266,95.3214844 37.2621094,94.4011719 L10.9755859,68.1144531 L59.1777344,19.9119141 C59.9912109,19.0984375 59.9912109,17.7792969 59.1777344,16.9658203 C58.3640625,16.1523437 57.0453125,16.1523437 56.2314453,16.9660156 L8.02929687,65.1685547 L5.59648437,62.7357422 C4.67441406,61.8136719 4.16660156,60.5804687 4.16660156,59.2632812 C4.16660156,57.9460937 4.67441406,56.7126953 5.59667969,55.7904297 L55.7884766,5.59863281 C56.7107422,4.6765625 57.9441406,4.16875 59.2613281,4.16875 C60.5785156,4.16875 61.8119141,4.6765625 62.7341797,5.59882812 L74.0042969,16.86875 L25.8015625,65.071875 C24.9880859,65.8851562 24.9880859,67.2042969 25.8015625,68.0181641 C26.2083984,68.4248047 26.7416016,68.628125 27.2746094,68.628125 C27.8076172,68.628125 28.3408203,68.4246094 28.7476563,68.0179687 L76.9503906,19.8150391 L94.3994141,37.2634766 C96.3140625,39.1783203 96.3138672,42.2941406 94.3994141,44.2089844 Z" id="Shape"></path>
            <path d="M51.3283203,60.16875 C50.5148437,59.3552734 49.1960937,59.3554688 48.3820312,60.16875 L31.9886719,76.5619141 C31.1751953,77.3753906 31.1751953,78.6943359 31.9886719,79.5082031 C32.3955078,79.9150391 32.9287109,80.1183594 33.4617187,80.1183594 C33.9947266,80.1183594 34.5279297,79.9148438 34.9347656,79.5082031 L51.328125,63.1150391 C52.1417969,62.3011719 52.1417969,60.9822266 51.3283203,60.16875 Z" id="Path"></path>
            <path d="M44.6044922,75.7306641 L37.8808594,82.4542969 C37.0673828,83.2677734 37.0673828,84.5869141 37.8808594,85.4005859 C38.2876953,85.8072266 38.8208984,86.0107422 39.3539063,86.0107422 C39.8873047,86.0107422 40.4201172,85.8072266 40.8269531,85.4005859 L47.5505859,78.6769531 C48.3640625,77.8634766 48.3640625,76.5443359 47.5505859,75.7306641 C46.7371094,74.9169922 45.4185547,74.9169922 44.6044922,75.7306641 Z" id="Path"></path>
            <path d="M50.7917969,69.5439453 L49.9080078,70.4275391 C49.0943359,71.2410156 49.0943359,72.5599609 49.9078125,73.3738281 C50.3144531,73.7806641 50.8478516,73.9841797 51.3808594,73.9841797 C51.9138672,73.9841797 52.4470703,73.7806641 52.8537109,73.3738281 L53.7375,72.4902344 C54.5511719,71.6767578 54.5511719,70.3578125 53.7376953,69.5441406 C52.9246094,68.7306641 51.6052734,68.7304688 50.7917969,69.5439453 Z" id="Path"></path>
            <path d="M79.5064453,31.9908203 C79.1158203,31.6001953 78.5859375,31.3806641 78.0333984,31.3806641 C77.4808594,31.3806641 76.9511719,31.6001953 76.5603516,31.9908203 L67.7214844,40.8294922 C67.3308594,41.2203125 67.1113281,41.75 67.1113281,42.3025391 C67.1113281,42.8550781 67.3308594,43.3849609 67.7214844,43.7755859 L73.6140625,49.6675781 C74.0208984,50.0744141 74.5541016,50.2777344 75.0871094,50.2777344 C75.6205078,50.2777344 76.1533203,50.0742188 76.5601562,49.6675781 L85.3986328,40.8292969 C86.2121094,40.0158203 86.2121094,38.6966797 85.3986328,37.8832031 L79.5064453,31.9908203 Z M75.0869141,45.2486328 L72.140625,42.3025391 L78.0332031,36.4101562 L80.9792969,39.3564453 L75.0869141,45.2486328 Z" id="Shape"></path>
            <path d="M62.5662109,15.6613281 C63.0996094,15.6613281 63.6328125,15.4578125 64.0394531,15.0507812 L64.9232422,14.1666016 C65.7365234,13.3529297 65.7363281,12.0337891 64.9226563,11.2205078 C64.1091797,10.4072266 62.7898437,10.4074219 61.9765625,11.2210938 L61.0927734,12.1052734 C60.2794922,12.9189453 60.2796875,14.2380859 61.0933594,15.0513672 C61.5001953,15.4582031 62.0330078,15.6613281 62.5662109,15.6613281 Z" id="Path"></path>
            <path d="M20.9404297,69.9330078 L20.0566406,70.8167969 C19.2431641,71.6300781 19.2431641,72.9492188 20.0566406,73.7630859 C20.4634766,74.1697266 20.9966797,74.3730469 21.5296875,74.3730469 C22.0626953,74.3730469 22.5958984,74.1697266 23.0027344,73.7630859 L23.8865234,72.8792969 C24.7,72.065625 24.7,70.7464844 23.8865234,69.9330078 C23.0728516,69.1193359 21.7541016,69.1193359 20.9404297,69.9330078 Z" id="Path"></path>
        </g>
    </g>
</svg>