<?xml version="1.0" encoding="UTF-8"?>
<svg width="100px" height="100px" viewBox="0 0 100 100" version="1.1" xmlns="http://www.w3.org/2000/svg" xmlns:xlink="http://www.w3.org/1999/xlink">
    <!-- Generator: Sketch 55 (78076) - https://sketchapp.com -->
    <title>iPhone 8</title>
    <desc>Created with Sketch.</desc>
    <g id="iPhone-8" stroke="none" stroke-width="1" fill="none" fill-rule="evenodd">
        <path d="M12.4685493,60.2480933 L2.19403428,56.7372284 C1.17284396,56.3159246 1.06437556,56.1084524 1,55.0653502 L1,39.651726 C1.06878484,38.5458257 1.23016466,38.3749194 2.19844356,37.9783462 L72.7469977,14.0878603 C72.8907404,14.048468 73.046829,13.9670336 73.5732976,14.0143751 C75.1086105,14.3392294 75.0274797,14.9155412 75.0759818,15.7661862 L75.0045514,41.4230567 C74.9110746,42.8532815 72.9886265,43.7358113 71.9524446,42.623905 C71.6755415,42.3266959 71.5212165,42.1377716 71.4771237,41.4133411 L71.5414993,18.2255581 L4.52742771,40.9191703 L4.52742771,53.8015271 L71.5414993,76.7008451 L71.4771237,51.9786154 C71.5511997,50.7528599 71.9965374,50.6101289 72.485968,50.3775727 C73.5362596,49.8792507 74.9216569,50.697216 75.0045514,51.9694298 L75.0759818,79.1675478 C75.0116063,80.2964123 73.9031121,81.1649871 72.7425884,80.8440189 L30.7653168,66.5001708 L34.9029895,83.8225572 C34.9823567,84.2229283 34.9594284,84.2972968 34.9338545,84.4824231 C34.813922,85.3242358 34.2389513,85.9603427 33.1877778,86 L19.5189955,86 C18.7032778,85.9692634 18.0013197,85.4060235 17.795847,84.611464 L12.4685493,60.2480933 Z M16.3707662,61.581692 L20.9379032,82.4670542 L30.9522705,82.4670542 L26.9142476,65.5626153 C26.8833826,65.4090205 26.8639818,65.2774182 26.8525177,65.1632158 L16.3707662,61.581692 Z M88.8267769,63.0164213 C89.1592369,63.039827 89.37441,63.0798376 89.7544904,63.3326199 L99.4549165,70.1173773 C100.850014,71.1423732 99.6674441,74.498495 97.4354642,73.0139512 L87.7341561,66.2291938 C86.5498223,65.358676 86.9775229,63.0559019 88.7447642,63.0144781 C88.7721017,63.0150964 88.7994393,63.015803 88.8267769,63.0164213 Z M99.3270473,49.2799748 L88.7447642,49.2799748 C86.9854596,49.2374028 86.1494592,45.8098271 88.7447642,45.747029 C92.3004113,45.747029 95.8578221,45.6630332 99.4125874,45.7490605 C101.1375,45.8745684 101.92147,49.2170884 99.3270473,49.2799748 Z M98.5227938,21.3059335 C99.9787396,21.4047677 100.822677,23.5081953 99.458444,24.5163213 L89.7580178,31.3387046 C88.3152999,32.3034638 85.6415097,29.9910624 87.7306287,28.4474301 L97.4319368,21.6250468 C97.7546964,21.4087422 98.1241944,21.2976311 98.5227938,21.3059335 Z" id="Fill-24" fill="#000000"></path>
    </g>
</svg>