<svg xmlns="http://www.w3.org/2000/svg" xmlns:xlink="http://www.w3.org/1999/xlink" width="100" height="20" viewBox="0 0 100 20">
    <defs>
        <path id="a" d="M0 9.408h21.846V.282H0z"/>
        <path id="c" d="M0 19.674h99.718V.327H0z"/>
    </defs>
    <g fill="none" fill-rule="evenodd">
        <path fill="#E91E63" d="M10.162 8.274a.902.902 0 0 1 1.57.007l3.207 5.58 2.242-3.899-.35-.607L12.017.974a1.253 1.253 0 0 0-1.113-.646c-.473 0-.878.234-1.114.646L4.973 9.355l-.307.534 2.284 3.973 3.212-5.588z"/>
        <g transform="translate(0 10.265)">
            <mask id="b" fill="#fff">
                <use xlink:href="#a"/>
            </mask>
            <path fill="#E91E63" d="M21.67 7.471l-3.426-5.96-2.475 4.307a.905.905 0 0 1-1.593.051L10.966.282 7.752 5.868a.902.902 0 0 1-1.564-.003L3.644 1.438.177 7.471c-.236.41-.236.881 0 1.292.237.41.642.646 1.113.646h19.266c.473 0 .878-.236 1.114-.646.235-.41.235-.882 0-1.292" mask="url(#b)"/>
        </g>
        <path fill="#E91E63" d="M29.49 12.707l-4.325-8.63h-2.139l5.784 11.537h1.348l1.224-2.326-1.067-2.124zM38.19 4.078l-4.322 8.62-4.32-8.62H27.41l5.783 11.536h1.35l5.784-11.536zM57.762 6.801c-1.056 0-1.895.423-2.513 1.266-.56-.843-1.322-1.266-2.285-1.266-.432 0-.791.074-1.077.221-.268.14-.592.41-.971.81v-.793h-1.971v7.35L44.37 5.246c-.352-.705-.984-1.125-1.694-1.125s-1.343.42-1.693 1.125L35.83 15.618h2.114l1.286-2.592h6.183l-.875-1.742h-4.444l.328-.667v-.003l2.168-4.346c.032-.064.068-.064.086-.064.02 0 .054 0 .087.065 1.118 2.24 2.24 4.479 3.362 6.717l1.314 2.622h3.476v-4.426c0-.897.127-1.553.381-1.97.254-.416.658-.625 1.213-.625.876 0 1.313.762 1.313 2.287v4.734h1.979v-4.426c0-.908.124-1.568.371-1.978.249-.412.644-.617 1.187-.617.467 0 .802.174 1.007.518.198.342.298.922.298 1.743v4.76h1.978V10.31c0-2.34-.96-3.51-2.88-3.51M67.43 13.329c-.449.505-1.039.756-1.768.756a2.15 2.15 0 0 1-1.7-.783c-.437-.515-.656-1.184-.656-2.005 0-.768.224-1.413.674-1.935.455-.517 1.022-.775 1.699-.775.718 0 1.302.256 1.751.766.45.521.674 1.184.674 1.988 0 .803-.225 1.466-.674 1.988zm3.68-6.29v1.847h4.35l-5.5 6.69V7.04h-1.978v.994c-.788-.82-1.678-1.23-2.67-1.23-1.152 0-2.108.427-2.873 1.283-.765.856-1.147 1.927-1.147 3.21 0 1.308.382 2.4 1.147 3.273.77.856 1.745 1.284 2.925 1.284.934 0 1.807-.38 2.618-1.144v.898H78.91v-1.865h-5.069l5.516-6.703h-8.248zM81.022 3.206c-.352 0-.652.126-.903.378-.25.253-.376.552-.376.898 0 .363.126.671.376.923.251.253.555.38.911.38s.657-.127.902-.38a1.25 1.25 0 0 0 .376-.915c0-.357-.125-.66-.376-.906a1.239 1.239 0 0 0-.91-.378"/>
        <mask id="d" fill="#fff">
            <use xlink:href="#c"/>
        </mask>
        <path fill="#E91E63" d="M80.041 15.608h1.97v-8.57h-1.97zM87.38 6.801c-.865 0-1.641.343-2.33 1.03V7.04h-1.978v8.569h1.978v-4.135c0-1.067.135-1.815.403-2.243.275-.434.74-.651 1.393-.651.6 0 1.014.164 1.242.491.234.324.351.907.351 1.751v4.787h1.979v-5.253c0-1.208-.24-2.078-.719-2.612-.554-.628-1.328-.942-2.32-.942M97.222 13.258c-.438.552-1.033.828-1.786.828-.753 0-1.342-.274-1.768-.819-.392-.498-.587-1.137-.587-1.917 0-.792.195-1.437.587-1.936.431-.557 1.02-.835 1.768-.835.7 0 1.275.254 1.725.765.444.499.665 1.164.665 1.997 0 .78-.2 1.42-.604 1.917zm.526-6.219v.967c-.713-.802-1.606-1.204-2.68-1.204-1.226 0-2.212.463-2.959 1.39-.695.874-1.042 1.935-1.042 3.184 0 1.285.373 2.355 1.121 3.211.742.844 1.692 1.266 2.854 1.266 1.022 0 1.924-.402 2.706-1.205v.608c0 .706-.366 1.895-1.512 2.187-.788.2-1.577.096-2.092-.139-.462-.208-.788-.685-1.02-1.15h-1.956c.21.94.763 1.625 1.189 1.997.799.697 1.922 1.047 3.225 1.022 1.349-.026 2.43-.533 3.2-1.424.408-.463.897-1.474.897-2.857 0-1.382.039-1.876.039-2.277V7.039h-1.97z" mask="url(#d)"/>
    </g>
</svg>
