<?xml version="1.0" encoding="UTF-8"?>
<svg width="40px" height="11px" viewBox="0 0 40 11" version="1.1" xmlns="http://www.w3.org/2000/svg" xmlns:xlink="http://www.w3.org/1999/xlink">
    <!-- Generator: Sketch 55 (78076) - https://sketchapp.com -->
    <title>logo_wamazing</title>
    <desc>Created with Sketch.</desc>
    <g id="Page-1" stroke="none" stroke-width="1" fill="none" fill-rule="evenodd">
        <g id="logo_wamazing" transform="translate(-9.000000, -5.000000)" fill="#333333" fill-rule="nonzero">
            <path d="M9,5.78571429 L10.4923998,5.78571429 L10.4923998,14.6695678 L15.9230769,14.6695678 L15.9230769,16 L9,16 L9,5.78571429 Z M22.4543235,5 C24.012765,5 25.2537463,5.51886792 26.1628372,6.57142857 C27.028638,7.56469003 27.4615385,8.88409704 27.4615385,10.5148248 C27.4615385,12.1307278 27.028638,13.43531 26.1628372,14.4433962 C25.2537463,15.4811321 24.012765,16 22.4543235,16 C20.8814519,16 19.6404706,15.4663073 18.7458097,14.4285714 C17.8800089,13.4204852 17.4615385,12.115903 17.4615385,10.5148248 C17.4615385,8.89892183 17.8800089,7.59433962 18.7458097,6.58625337 C19.6404706,5.51886792 20.8814519,5 22.4543235,5 Z M22.4615385,6.57142857 C21.3515093,6.57142857 20.489776,6.92857143 19.8763389,7.67142857 C19.292113,8.37142857 19,9.31428571 19,10.5142857 C19,11.7 19.292113,12.6428571 19.8763389,13.3428571 C20.489776,14.0571429 21.3515093,14.4285714 22.4615385,14.4285714 C23.5715677,14.4285714 24.4333009,14.0714286 25.0321324,13.3714286 C25.6163583,12.6857143 25.9230769,11.7285714 25.9230769,10.5142857 C25.9230769,9.28571429 25.6163583,8.32857143 25.0321324,7.62857143 C24.4333009,6.91428571 23.5715677,6.57142857 22.4615385,6.57142857 Z M33.0228531,5 C34.3092237,5 35.3270114,5.29649596 36.0762163,5.91913747 C36.7971493,6.51212938 37.2494994,7.38679245 37.4332666,8.57277628 L35.8783131,8.57277628 C35.7369537,7.86118598 35.425963,7.32749326 34.945341,6.97169811 C34.464719,6.60107817 33.8144658,6.42318059 33.0228531,6.42318059 C32.0474732,6.42318059 31.2699965,6.76415094 30.6904229,7.47574124 C30.0684415,8.21698113 29.7715868,9.23989218 29.7715868,10.5444744 C29.7715868,11.819407 30.0401696,12.7978437 30.6056073,13.4797844 C31.1993168,14.2210243 32.1322888,14.5916442 33.3903876,14.5916442 C33.8851455,14.5916442 34.3516315,14.5175202 34.7898457,14.3989218 C35.2139239,14.2803235 35.5814584,14.1024259 35.9207209,13.8800539 L35.9207209,11.5822102 L33.1359406,11.5822102 L33.1359406,10.203504 L37.4615385,10.203504 L37.4615385,14.6509434 C36.9385087,15.0808625 36.3306632,15.4070081 35.6380021,15.6442049 C34.9029332,15.8814016 34.0971846,16 33.2207563,16 C31.609259,16 30.3652963,15.4663073 29.474732,14.3989218 C28.6407115,13.4056604 28.2307692,12.115903 28.2307692,10.5444744 C28.2307692,8.95822102 28.6407115,7.65363881 29.474732,6.63072776 C30.3511603,5.53369272 31.5385793,5 33.0228531,5 Z M43.992785,5 C45.5512266,5 46.7922078,5.51886792 47.7012987,6.57142857 C48.5670996,7.56469003 49,8.88409704 49,10.5148248 C49,12.1307278 48.5670996,13.43531 47.7012987,14.4433962 C46.7922078,15.4811321 45.5512266,16 43.992785,16 C42.4199134,16 41.1789322,15.4663073 40.2842713,14.4285714 C39.4184704,13.4204852 39,12.115903 39,10.5148248 C39,8.89892183 39.4184704,7.59433962 40.2842713,6.58625337 C41.1789322,5.51886792 42.4199134,5 43.992785,5 Z M44,6.57142857 C42.8899708,6.57142857 42.0282376,6.92857143 41.4148004,7.67142857 C40.8305745,8.37142857 40.5384615,9.31428571 40.5384615,10.5142857 C40.5384615,11.7 40.8305745,12.6428571 41.4148004,13.3428571 C42.0282376,14.0571429 42.8899708,14.4285714 44,14.4285714 C45.1100292,14.4285714 45.9717624,14.0714286 46.570594,13.3714286 C47.1548199,12.6857143 47.4615385,11.7285714 47.4615385,10.5142857 C47.4615385,9.28571429 47.1548199,8.32857143 46.570594,7.62857143 C45.9717624,6.91428571 45.1100292,6.57142857 44,6.57142857 Z" id="LOGO"></path>
        </g>
    </g>
</svg>