<?xml version="1.0" encoding="UTF-8"?>
<svg width="100px" height="100px" viewBox="0 0 100 100" version="1.1" xmlns="http://www.w3.org/2000/svg" xmlns:xlink="http://www.w3.org/1999/xlink">
    <!-- Generator: Sketch 55 (78076) - https://sketchapp.com -->
    <title>credit-card (2)</title>
    <desc>Created with Sketch.</desc>
    <g id="Page-1" stroke="none" stroke-width="1" fill="none" fill-rule="evenodd" fill-opacity="0">
        <path d="M45.2864582,11.6254677 L25.2745157,45.685589 L24,47.8545564 L33.487259,64 L46.8341704,41.2908872 C47.8740019,39.5263837 50.173907,38.9232357 51.9707455,39.9450393 C52.5712963,40.2891885 53.0418682,40.7693416 53.358391,41.3204533 L66.6848427,64 L76,48.1502172 L74.549772,45.685589 L54.539033,11.6254677 C53.559377,9.95557562 51.8732613,9 49.9127456,9 C47.9498229,9 46.2673178,9.95557562 45.2864582,11.6254677 L45.2864582,11.6254677 Z" id="Fill-1" stroke="#000000" stroke-width="3.75" fill="#FFFFFF"></path>
        <path d="M50.1721315,53 L36.9397855,75.6476197 C36.6223715,76.1903319 36.1617631,76.6587162 35.5746665,76.9914225 C33.7942842,78.0025191 31.5198815,77.3972769 30.4960423,75.6381812 L20.0118334,57.6850228 L5.72939593,82.1471892 C4.75686802,83.8107203 4.75686802,85.718472 5.72939593,87.3820031 C6.70311713,89.0478939 8.37133065,90 10.3139999,90 L49.9979117,90 L89.6842102,90 C91.629266,90 93.2998661,89.0478939 94.272394,87.3820031 C95.2425353,85.718472 95.2425353,83.8107203 94.272394,82.1471892 L80.1594031,57.9811549 L69.9615828,75.4446925 C69.6501352,76.0699914 69.1513418,76.6174229 68.492648,76.9914225 C66.7122657,78.0119575 64.42951,77.4114346 63.3997043,75.6511591 L50.1721315,53 Z" id="Fill-3" stroke="#000000" stroke-width="3.75" fill="#FFFFFF"></path>
    </g>
</svg>