<?xml version="1.0" encoding="UTF-8"?>
<svg width="100px" height="100px" viewBox="0 0 100 100" version="1.1" xmlns="http://www.w3.org/2000/svg" xmlns:xlink="http://www.w3.org/1999/xlink">
    <!-- Generator: Sketch 55 (78076) - https://sketchapp.com -->
    <title>iPhone 8</title>
    <desc>Created with Sketch.</desc>
    <g id="iPhone-8" stroke="none" stroke-width="1" fill="none" fill-rule="evenodd">
        <g id="ticket-(1)" transform="translate(1.000000, 1.000000)" fill="#000000" fill-rule="nonzero">
            <path d="M88.3292308,26.1538462 L87.2415385,27.2415385 C85.2046154,29.2784615 83.7230769,29.8676923 80.6369231,29.8676923 C74.3969231,29.8676923 69.8676923,25.3384615 69.8676923,19.0984615 C69.8676923,16.0123077 70.4569231,14.5307692 72.4938462,12.4938462 L73.5815385,11.4061538 L62.1753846,0 L0,62.1753846 L11.4061538,73.5815385 L12.4938462,72.4938462 C14.5307692,70.4569231 16.0123077,69.8676923 19.0984615,69.8676923 C25.3384615,69.8676923 29.8676923,74.3969231 29.8676923,80.6369231 C29.8676923,83.7230769 29.2784615,85.2046154 27.2415385,87.2415385 L26.1538462,88.3292308 L37.56,99.7353846 L99.7353846,37.56 L88.3292308,26.1538462 Z M30.4615385,88.2846154 C32.2953846,86.0984615 32.9446154,83.9923077 32.9446154,80.6369231 C32.9446154,72.7430769 26.9923077,66.7907692 19.0984615,66.7907692 C15.7430769,66.7907692 13.6369231,67.44 11.4492308,69.2738462 L4.35076923,62.1753846 L40.6369231,25.8892308 L45.7030769,30.9553846 L47.8784615,28.78 L42.8123077,23.7138462 L62.1753846,4.35076923 L69.2738462,11.4507692 C67.44,13.6369231 66.7907692,15.7430769 66.7907692,19.0984615 C66.7907692,26.9923077 72.7430769,32.9446154 80.6369231,32.9446154 C83.9923077,32.9446154 86.0984615,32.2953846 88.2861538,30.4615385 L95.3846154,37.56 L76.0215385,56.9230769 L70.9553846,51.8569231 L68.78,54.0323077 L73.8461538,59.0984615 L37.56,95.3846154 L30.4615385,88.2846154 Z" id="Shape"></path>
            <polygon id="Path" points="54.9338462 40.1876923 48.78 34.0338462 50.9553846 31.8584615 57.1092308 38.0123077"></polygon>
            <polygon id="Path" points="65.7030769 50.9569231 59.5492308 44.8030769 61.7246154 42.6276923 67.8784615 48.7815385"></polygon>
        </g>
    </g>
</svg>